<svg xmlns="http://www.w3.org/2000/svg" width="240" height="320" viewBox="0 0 240 320">
  <defs>
    <linearGradient id="body" x1="0" y1="0" x2="0" y2="1">
      <stop offset="0" stop-color="#1c2c46"/>
      <stop offset="1" stop-color="#141b30"/>
    </linearGradient>
    <radialGradient id="sig" cx="0.5" cy="0.5" r="0.5">
      <stop offset="0" stop-color="#4ce1ff" stop-opacity="0.28"/>
      <stop offset="1" stop-color="#4ce1ff" stop-opacity="0"/>
    </radialGradient>
    <filter id="glow" x="-20%" y="-20%" width="140%" height="140%">
      <feGaussianBlur stdDeviation="3"/>
    </filter>
  </defs>
  <rect x="6" y="6" width="228" height="308" rx="18" fill="none" stroke="#4ce1ff" stroke-width="7" opacity="0.28" filter="url(#glow)"/>
  <rect x="8" y="8" width="224" height="304" rx="16" fill="url(#body)"/>
  <rect x="8" y="8" width="224" height="304" rx="16" fill="none" stroke="#4ce1ff" stroke-width="3"/>
  <rect x="15" y="15" width="210" height="290" rx="11" fill="none" stroke="#9af0ff" stroke-width="1.2" opacity="0.5"/>
  <path d="M8 24 Q8 8 24 8 H216 Q232 8 232 24 V30 H8 Z" fill="#4ce1ff" opacity="0.92"/>
  <rect x="22" y="66" width="196" height="22" rx="6" fill="#4ce1ff" opacity="0.14"/>
  <line x1="30" y1="66" x2="30" y2="88" stroke="#4ce1ff" stroke-width="2" opacity="0.5"/>
  <line x1="210" y1="66" x2="210" y2="88" stroke="#4ce1ff" stroke-width="2" opacity="0.5"/>
  <circle cx="30" cy="34" r="20" fill="#0c1422"/>
  <circle cx="30" cy="34" r="20" fill="none" stroke="#9af0ff" stroke-width="2" opacity="0.7"/>
  <!-- Sigil watermark: 6-fold snowflake -->
  <ellipse cx="120" cy="208" rx="78" ry="78" fill="url(#sig)"/>
  <g stroke="#4ce1ff" stroke-width="4" stroke-linecap="round" opacity="0.85">
    <g transform="translate(120 208)">
      <g id="arm">
        <line x1="0" y1="0" x2="0" y2="-56"/>
        <line x1="0" y1="-34" x2="-13" y2="-46"/>
        <line x1="0" y1="-34" x2="13" y2="-46"/>
        <line x1="0" y1="-20" x2="-10" y2="-30"/>
        <line x1="0" y1="-20" x2="10" y2="-30"/>
      </g>
      <use href="#arm" transform="rotate(60)"/>
      <use href="#arm" transform="rotate(120)"/>
      <use href="#arm" transform="rotate(180)"/>
      <use href="#arm" transform="rotate(240)"/>
      <use href="#arm" transform="rotate(300)"/>
      <circle cx="0" cy="0" r="6" fill="#9af0ff" stroke="none"/>
    </g>
  </g>
  <g stroke="#9af0ff" stroke-width="2" opacity="0.45" fill="none">
    <path d="M205 286 h14 v-14"/>
    <path d="M35 286 h-14 v-14"/>
  </g>
</svg>
