<svg xmlns="http://www.w3.org/2000/svg" width="240" height="320" viewBox="0 0 240 320">
  <defs>
    <linearGradient id="body" x1="0" y1="0" x2="0" y2="1">
      <stop offset="0" stop-color="#2a1c48"/>
      <stop offset="1" stop-color="#190f2e"/>
    </linearGradient>
    <radialGradient id="sig" cx="0.5" cy="0.5" r="0.5">
      <stop offset="0" stop-color="#c87bff" stop-opacity="0.30"/>
      <stop offset="1" stop-color="#c87bff" stop-opacity="0"/>
    </radialGradient>
    <filter id="glow" x="-20%" y="-20%" width="140%" height="140%">
      <feGaussianBlur stdDeviation="3"/>
    </filter>
  </defs>
  <rect x="6" y="6" width="228" height="308" rx="18" fill="none" stroke="#c87bff" stroke-width="7" opacity="0.30" filter="url(#glow)"/>
  <rect x="8" y="8" width="224" height="304" rx="16" fill="url(#body)"/>
  <rect x="8" y="8" width="224" height="304" rx="16" fill="none" stroke="#c87bff" stroke-width="3"/>
  <rect x="15" y="15" width="210" height="290" rx="11" fill="none" stroke="#dcabff" stroke-width="1.2" opacity="0.5"/>
  <path d="M8 24 Q8 8 24 8 H216 Q232 8 232 24 V30 H8 Z" fill="#c87bff" opacity="0.92"/>
  <rect x="22" y="66" width="196" height="22" rx="6" fill="#c87bff" opacity="0.14"/>
  <line x1="30" y1="66" x2="30" y2="88" stroke="#c87bff" stroke-width="2" opacity="0.5"/>
  <line x1="210" y1="66" x2="210" y2="88" stroke="#c87bff" stroke-width="2" opacity="0.5"/>
  <circle cx="30" cy="34" r="20" fill="#150a26"/>
  <circle cx="30" cy="34" r="20" fill="none" stroke="#dcabff" stroke-width="2" opacity="0.7"/>
  <!-- Sigil watermark: lightning bolt within a ring -->
  <ellipse cx="120" cy="208" rx="78" ry="78" fill="url(#sig)"/>
  <circle cx="120" cy="208" r="58" fill="none" stroke="#c87bff" stroke-width="3" opacity="0.5"/>
  <path d="M132 156 L100 206 H122 L108 260 L156 198 H132 Z"
        fill="#c87bff" stroke="#f0d8ff" stroke-width="2.5" stroke-linejoin="round" opacity="0.9"/>
  <g stroke="#dcabff" stroke-width="2" opacity="0.45" fill="none">
    <path d="M205 286 h14 v-14"/>
    <path d="M35 286 h-14 v-14"/>
  </g>
</svg>
